<?xml version="1.0" encoding="utf-8"?>
<!-- Generator: Adobe Illustrator 27.2.0, SVG Export Plug-In . SVG Version: 6.00 Build 0)  -->
<svg version="1.1" id="Layer_1" xmlns="http://www.w3.org/2000/svg" xmlns:xlink="http://www.w3.org/1999/xlink" x="0px" y="0px"
	 viewBox="0 0 500 500" style="enable-background:new 0 0 500 500;" xml:space="preserve">
<style type="text/css">
	.st0{fill:#ECECEC;stroke:#010101;stroke-width:0.2;stroke-linecap:round;stroke-linejoin:round;}
</style>
<path id="BW" class="st0" d="M307.49,60.27l12.03,32.3l6.97,7.6l10.13,23.43l38.63,44.33l14.57,4.43l-0.63,14.57l9.5,25.97
	l27.23,6.33l21.53,18.37l-51.3,29.77l-32.93,30.4l-12.67,27.23l-11.4,15.2l-19,3.17l-7.6,19.63l-3.8,12.67l-22.8,8.87l-28.5-1.9
	l-15.83-11.4l-14.57-4.43l-17.73,8.87l-9.5,19.63l-17.1,12.03L165,425.69l-25.33,4.43l-6.97-14.57l3.8-24.7l-19-38.63l-8.87-6.33
	l3.8-118.43l34.83-1.27l5.07-145.03l26.6-1.27l55.1-14.57l12.67,17.1l23.43-15.83h10.77l20.27-9.5L307.49,60.27L307.49,60.27z"/>
</svg>
