<?xml version="1.0" encoding="utf-8"?>
<!-- Generator: Adobe Illustrator 27.2.0, SVG Export Plug-In . SVG Version: 6.00 Build 0)  -->
<svg version="1.1" id="Layer_1" xmlns="http://www.w3.org/2000/svg" xmlns:xlink="http://www.w3.org/1999/xlink" x="0px" y="0px"
	 viewBox="0 0 500 500" style="enable-background:new 0 0 500 500;" xml:space="preserve">
<style type="text/css">
	.st0{fill:#ECECEC;stroke:#010101;stroke-width:0.2;stroke-linecap:round;stroke-linejoin:round;}
</style>
<path class="st0" d="M357.37,398.87l-10.25,30.76l5.43,11.46l-5.43,19.9l-25.33-14.48l-16.28-4.22L260.27,423l3.02-19.9l37.39,3.62
	l32.57-4.22L357.37,398.87z"/>
<path class="st0" d="M283.18,82.23l-2.41,18.7l8.44,16.28l-24.73-6.03l-23.52,13.87l2.41,18.7l-3.02,10.86l11.46,19.3l30.16,19.3
	l17.49,31.97l36.79,30.76l24.12-0.6l8.44,8.44l-8.44,7.84l28.95,13.87l24.12,11.46l28.35,20.51l3.62,6.63l-4.83,13.87l-18.7-18.09
	l-27.74-6.03l-11.46,24.73l23.52,14.47l-2.41,19.9l-12.67,2.41l-15.08,33.17l-13.27,3.02l-0.6-12.06l5.43-20.51l6.63-8.44
	l-13.87-22.32l-10.86-19.3l-13.27-4.82L325.4,307.8l-20.51-7.24l-14.47-15.68l-22.92-2.41l-25.93-16.89l-29.55-25.33l-22.32-21.71
	l-11.46-38l-15.68-4.22l-25.33-12.67l-13.87,4.82l-17.49,18.09l-12.67,2.41l3.02-16.28l-16.89-4.82l-9.05-29.55l10.25-11.46
	l-9.05-14.47l0.6-10.86l13.27,8.44l15.08-1.81l16.28-13.27l5.43,6.03l14.47-1.21l6.03-15.08l22.92,4.82l12.67-6.63l1.81-15.08
	l18.7,5.43l3.02-7.24l29.55-6.63l7.84,12.67L283.18,82.23z"/>
</svg>
