<?xml version="1.0" encoding="utf-8"?>
<!-- Generator: Adobe Illustrator 27.2.0, SVG Export Plug-In . SVG Version: 6.00 Build 0)  -->
<svg version="1.1" id="Layer_1" xmlns="http://www.w3.org/2000/svg" xmlns:xlink="http://www.w3.org/1999/xlink" x="0px" y="0px"
	 viewBox="0 0 500 500" style="enable-background:new 0 0 500 500;" xml:space="preserve">
<style type="text/css">
	.st0{fill:#ECECEC;stroke:#010101;stroke-width:0.2;stroke-linecap:round;stroke-linejoin:round;}
</style>
<path class="st0" d="M256.02,382.18l7.69,10.57l-6.25,18.74l-14.89-10.09l-10.09,7.21l0.48,17.78l-20.66-8.65l-5.77-14.41
	l6.25-18.74l16.33,3.84l4.8-12.97L256.02,382.18z"/>
<path class="st0" d="M374.2,289.94l2.88,24.5l12.01,15.37l-2.88,21.62l-25.94,14.41l-44.2,1.92l-21.14,35.55l-22.58-12.01
	l-11.53-23.06l-41.32,6.73l-24.5,14.41l-29.79,0.96l35.55,22.58l3.84,52.37l-12.01,12.97l-17.3-12.01l-4.32-27.86l-19.7-8.65
	l-19.22-21.14l20.66-9.61l5.28-19.7l18.74-15.85l9.61-21.14l46.6-9.13l30.27,6.25v-54.77l24.5,14.89l21.62-30.75l8.17-12.01
	l-4.8-37.47l-24.5-34.59l-0.96-19.22l23.06-5.76l39.39,42.76l13.45,24.5l-6.25,31.23L374.2,289.94z"/>
<path class="st0" d="M317.03,74.71l21.62,6.25l8.65-12.49l28.83,34.11l-30.75,8.17l-1.92,30.27l-52.36-20.66l7.69,33.15l-27.38,0.48
	l-22.58-30.27l-2.88-23.54l24.98-1.44l-21.14-42.28l-8.65-23.54l50.44,31.71L317.03,74.71z"/>
</svg>
