<?xml version="1.0" encoding="utf-8"?>
<!-- Generator: Adobe Illustrator 27.2.0, SVG Export Plug-In . SVG Version: 6.00 Build 0)  -->
<svg version="1.1" id="Layer_1" xmlns="http://www.w3.org/2000/svg" xmlns:xlink="http://www.w3.org/1999/xlink" x="0px" y="0px"
	 viewBox="0 0 500 500" style="enable-background:new 0 0 500 500;" xml:space="preserve">
<style type="text/css">
	.st0{fill:#ECECEC;stroke:#010101;stroke-width:0.2;stroke-linecap:round;stroke-linejoin:round;}
</style>
<path id="KE" class="st0" d="M387.57,124.03l-27.5,40.4l1.12,131.3l18.52,29.74l-22.45,14.59l-7.86,15.15l-12.34,2.24l-4.49,25.81
	l-10.66,14.59l-6.17,23.57l-12.91,11.78l-45.45-35.91l-1.68-20.76l-115.03-73.51l2.24-26.37l-7.86-14.03v-1.68l8.98-14.59
	l15.71-23.57l11.78-26.37l-14.59-41.52l-3.93-17.96l-15.15-25.25l19.08-21.32l21.32-23.57l16.27,6.17l0.56,20.2l10.66,11.78h22.45
	l40.4,30.3l10.1,0.56l7.29-1.12l7.29,3.93l21.32,3.37l8.98-15.15l29.18-15.15l12.91,12.34L387.57,124.03L387.57,124.03z"/>
</svg>
