<?xml version="1.0" encoding="utf-8"?>
<!-- Generator: Adobe Illustrator 27.2.0, SVG Export Plug-In . SVG Version: 6.00 Build 0)  -->
<svg version="1.1" id="Layer_1" xmlns="http://www.w3.org/2000/svg" xmlns:xlink="http://www.w3.org/1999/xlink" x="0px" y="0px"
	 viewBox="0 0 500 500" style="enable-background:new 0 0 500 500;" xml:space="preserve">
<style type="text/css">
	.st0{fill:#ECECEC;stroke:#010101;stroke-width:0.2;stroke-linecap:round;stroke-linejoin:round;}
</style>
<path class="st0" d="M446.21,162.41l-21.38,7.02l-10.69,1.67l2.67-12.69l-19.38-7.02l-19.71,6.01l-3.67,13.36l-11.36,8.02
	l-15.7-4.34l-17.71,0.67l-17.04-9.35l-7.35,4.68l-8.69,0.67l0.33,12.03l-26.72-3.01l-2,10.36h-13.36l-7.68,13.03l-11.36,20.38
	l-19.04,26.39l6.01,6.68l-4.34,7.35l-14.36-0.33L195.67,282l3.34,25.72l10.36,9.69l-2.67,23.05l-11.36,13.36l-6.01,11.36
	l-11.02-12.03l-28.73,22.72l-20.38,4.68l-21.71-10.02l-6.01-21.05l-6.68-45.1l13.36-12.36l37.75-16.37l27.06-19.71l24.05-26.06
	l29.73-35.74l21.38-13.7l34.41-22.72l28.39-8.02l22.38,1l17.37-14.7l24.72,0.67l23.38-3.34l45.77,13.03l-16.37,4.68L446.21,162.41z"
	/>
</svg>
