<?xml version="1.0" encoding="utf-8"?>
<!-- Generator: Adobe Illustrator 27.2.0, SVG Export Plug-In . SVG Version: 6.00 Build 0)  -->
<svg version="1.1" id="Layer_1" xmlns="http://www.w3.org/2000/svg" xmlns:xlink="http://www.w3.org/1999/xlink" x="0px" y="0px"
	 viewBox="0 0 500 500" style="enable-background:new 0 0 500 500;" xml:space="preserve">
<style type="text/css">
	.st0{fill:#ECECEC;stroke:#010101;stroke-width:0.2;stroke-linecap:round;stroke-linejoin:round;}
</style>
<path id="SK" class="st0" d="M446.89,218.14l-16.63,23.56l-9.7,34.65l-13.86,8.32l-76.24-26.34l-22.18,5.54l-13.86,20.79
	l-31.88,11.09l-8.32-5.54l-31.88,12.48L196,305.47l-4.16,18.02l-56.83,9.7l-26.34-8.32l-37.43-23.56l-9.7-29.11l4.16-11.09
	l8.32-19.41l30.49,1.39l22.18-8.32l1.39-8.32l12.48-4.16l2.77-19.41l15.25-4.16l9.7-15.25h20.79l4.16,5.54l26.34-12.48l37.43,30.5
	l38.81-18.02l33.27,8.32l48.52-12.48L446.89,218.14L446.89,218.14z"/>
</svg>
