<?xml version="1.0" encoding="utf-8"?>
<!-- Generator: Adobe Illustrator 27.2.0, SVG Export Plug-In . SVG Version: 6.00 Build 0)  -->
<svg version="1.1" id="Layer_1" xmlns="http://www.w3.org/2000/svg" xmlns:xlink="http://www.w3.org/1999/xlink" x="0px" y="0px"
	 viewBox="0 0 500 500" style="enable-background:new 0 0 500 500;" xml:space="preserve">
<style type="text/css">
	.st0{fill:#ECECEC;stroke:#010101;stroke-width:0.2;stroke-linecap:round;stroke-linejoin:round;}
</style>
<path id="UZ" class="st0" d="M415.35,224.05l7.54,2.66l-13.31,18.19l20.4,10.65l14.19-7.1l31.94,15.08l-23.51,20.4l-18.19-2.66
	l-9.31,0.44l-5.77-7.54l0.89-13.31l-28.83,6.65l-2.22,18.19l-6.65,15.52l-19.52-1.33l-2.66,12.42l18.63,6.65l10.65,21.29
	l-5.77,28.83l-19.07-6.21h-13.31l-3.55-17.3l-34.15-12.42l-27.94-13.75l-18.63-13.31l-31.49-19.52l-19.07-29.27l-9.31-5.32
	l-24.4,1.33l-10.2-5.77l-8.43-22.18l-35.04-15.08l-15.08,16.41l-16.86,9.76l7.54,14.19l-26.17,0.44l-27.5-103.79l53.23-16.41
	l4.88,2.22l40.81,19.96l21.29,10.65l29.27,25.28l25.28-3.99l38.15-2.22l33.71,20.4l6.65,28.39l11.53,0.44l11.09,23.06l29.72,0.89
	l10.2,13.31h8.87l3.99-20.4l23.95-19.52L415.35,224.05L415.35,224.05z"/>
</svg>
