<?xml version="1.0" encoding="utf-8"?>
<!-- Generator: Adobe Illustrator 27.2.0, SVG Export Plug-In . SVG Version: 6.00 Build 0)  -->
<svg version="1.1" id="Layer_1" xmlns="http://www.w3.org/2000/svg" xmlns:xlink="http://www.w3.org/1999/xlink" x="0px" y="0px"
	 viewBox="0 0 500 500" style="enable-background:new 0 0 500 500;" xml:space="preserve">
<style type="text/css">
	.st0{fill:#ECECEC;stroke:#010101;stroke-width:0.2;stroke-linecap:round;stroke-linejoin:round;}
</style>
<path id="VE" class="st0" d="M436.53,189.58l-21.95,17.75l-2.34,10.74l8.41,11.21l-6.54,5.6l-16.35,4.67v14.01l-7.47,8.41
	l17.28,22.42l3.27,8.41l-9.81,11.68l-29.89,11.21l-19.15,4.67l-7.94,7.01l-21.02-7.47l-19.15-3.74l-5.14,2.8l11.68,7.47l-1.4,20.08
	l3.27,19.15l22.42,2.34l1.4,6.54l-19.15,8.41l-3.27,12.61l-11.21,5.14l-19.62,7.01l-5.14,9.34l-20.55,1.87l-14.48-15.88l-7.47-29.89
	l-7.01-10.74l-9.34-6.54l13.54-14.95l-0.93-6.54l-7.01-8.87l-5.14-20.08l2.8-21.48l6.07-10.28l5.6-15.88l-9.34-5.14l-14.95,3.27
	l-19.15-1.4l-10.74,3.27l-17.75-26.15l-15.41-3.74l-34.09,2.8l-5.6-10.28l-6.54-2.34l-0.47-6.54l3.27-11.21l-1.4-11.68l-5.6-7.01
	l-2.8-13.54l-13.54-1.87l8.41-17.75l4.2-21.48l8.41-11.21l10.74-8.41l7.47-14.95l17.28-5.14l-0.93,7.01l-15.88,3.74l7.94,13.54
	l-1.4,15.88l-12.61,17.28l8.87,23.82l11.68-1.87l7.01-21.95l-7.94-10.28v-22.89l33.63-12.14l-2.8-14.01l9.81-9.81l7.94,21.48
	l18.68,0.47l15.88,16.35l0.93,10.28h23.35l28.49-2.8l14.48,13.08l19.62,3.74l15.41-9.34l0.47-7.47l33.16-1.87l31.29-0.47
	l-22.89,8.87l8.41,14.48l21.02,1.87l19.62,14.95l3.27,23.82l13.54-0.47L436.53,189.58L436.53,189.58z"/>
</svg>
