<?xml version="1.0" encoding="utf-8"?>
<!-- Generator: Adobe Illustrator 27.2.0, SVG Export Plug-In . SVG Version: 6.00 Build 0)  -->
<svg version="1.1" id="Layer_1" xmlns="http://www.w3.org/2000/svg" xmlns:xlink="http://www.w3.org/1999/xlink" x="0px" y="0px"
	 viewBox="0 0 500 500" style="enable-background:new 0 0 500 500;" xml:space="preserve">
<style type="text/css">
	.st0{fill:#ECECEC;stroke:#010101;stroke-width:0.2;stroke-linecap:round;stroke-linejoin:round;}
</style>
<path id="VN" class="st0" d="M300.94,92.57l-28.07,23.32l-15.98,26.35l-2.59,19.44l22.89,28.94l28.07,36.28l24.62,17.28l17.71,22.03
	l17.28,51.4l1.73,48.8l-18.57,18.14l-26.35,18.14l-18.14,22.89l-28.51,25.91l-9.93-17.71l5.18-19l-19-15.55l19.87-11.23l25.48-2.16
	l-12.09-16.41l38.87-21.59l-0.43-33.26L315.2,296l0.86-27.64l-8.64-19.44l-21.16-19.44l-19-24.19l-24.62-32.82l-31.53-16.84
	l5.18-9.93l14.25-7.34l-12.96-24.19h-29.37L173.1,89.12l-17.28-22.03l11.66-6.91l19,0.43l22.89-3.46l17.71-14.68l13.39,10.37
	l22.89,5.18L262.07,74l13.39,11.23L300.94,92.57L300.94,92.57z"/>
</svg>
